<?xml version="1.0" encoding="utf-8"?>
<svg xmlns="http://www.w3.org/2000/svg" height="40" version="1.2" viewBox="0 0 40 40" width="40">
	<title>social-media-icons-svg</title>
	<style>
		.s0 { fill: #4373b9 } 
		.s1 { fill: #ffffff } 
	</style>
	<g id="Layer">
		<path class="s0" d="m40 20c0-11-9-20-20-20-11 0-20 9-20 20 0 10 7.3 18.3 16.9 19.8v-14h-5.1v-5.8h5.1v-4.4c0-5 3-7.8 7.5-7.8 2.2 0 4.5 0.4 4.5 0.4v4.9h-2.5c-2.5 0-3.3 1.6-3.3 3.1v3.8h5.6l-0.9 5.8h-4.7v14c9.6-1.5 16.9-9.8 16.9-19.8z" id="Layer"/>
		<path class="s1" d="m27.8 25.8l0.9-5.8h-5.6v-3.8c0-1.5 0.8-3.1 3.3-3.1h2.5v-4.9c0 0-2.3-0.4-4.5-0.4-4.5 0-7.5 2.8-7.5 7.8v4.4h-5.1v5.8h5.1v14c2 0.3 4.2 0.3 6.2 0v-14z" id="Layer"/>
	</g>
</svg>