<?xml version="1.0" encoding="utf-8"?>
<svg xmlns="http://www.w3.org/2000/svg" height="22px" version="1.1" viewBox="0 0 22 22" width="22px">
    
    <title>icon_share_blue</title>
    <desc>Created with Sketch.</desc>
    <defs>
        <polygon id="path-1" points="22 22 0 22 1.30298382e-15 0 22 0 22 22"/>
    </defs>
    <g fill="none" fill-rule="evenodd" id="Page-1" stroke="none" stroke-width="1">
        <g id="Icon-Page" transform="translate(-661.000000, -195.000000)">
            <g id="icon_share_blue" transform="translate(661.000000, 195.000000)">
                <g>
                    <mask fill="white" id="mask-2">
                        <use href="#path-1"/>
                    </mask>
                    <g id="Clip-2"/>
                    <path d="M18.697694,15.2691218 C17.6416781,15.2691218 16.7098993,15.7365439 16.1197728,16.4841076 L6.64668858,11.7790368 C6.70880716,11.529745 6.73986646,11.2804533 6.73986646,11 C6.73986646,10.7507082 6.70880716,10.470255 6.64668858,10.2209632 L16.0887135,5.51558074 C16.7098993,6.26345609 17.6416781,6.73087819 18.6663242,6.73087819 C20.5298817,6.73087819 22.0210383,5.20396601 22.0210383,3.36543909 C22.0210383,1.49575071 20.499133,0 18.6663242,0 C16.8027666,0 15.3122312,1.52691218 15.3122312,3.36543909 C15.3122312,3.61473088 15.3432905,3.89518414 15.4050985,4.14447592 L5.96338415,8.84985836 C5.3421983,8.101983 4.41041952,7.63456091 3.38546287,7.63456091 C1.52190533,7.63456091 0,9.13031161 0,11 C0,12.8696884 1.52190533,14.3654391 3.35440358,14.3654391 C4.41041952,14.3654391 5.3421983,13.898017 5.93232485,13.1501416 L15.4050985,17.8555241 C15.3432905,18.1048159 15.3122312,18.353796 15.3122312,18.6345609 C15.3122312,20.5042493 16.8341365,22 18.6663242,22 C20.5298817,22 22.0210383,20.4730878 22.0210383,18.6345609 C22.0520976,16.7648725 20.5298817,15.2691218 18.697694,15.2691218 L22.0210383,16.4841076" fill="#000000" id="Fill-1" mask="url(#mask-2)"/>
                </g>
            </g>
        </g>
    </g>
</svg>