<?xml version="1.0" encoding="utf-8"?>
<svg xmlns="http://www.w3.org/2000/svg" height="40px" version="1.1" viewBox="0 0 40 40" width="40px">
    
    <title>YouTube Copy</title>
    <desc>Created with Sketch.</desc>
    <g fill="none" fill-rule="evenodd" id="Page-1" stroke="none" stroke-width="1">
        <g id="YouTube-Copy">
            <rect fill="#E60019" height="40" id="Rectangle-Copy" rx="20" width="40" x="0" y="0"/>
            <path d="M33.0161914,13.810729 C32.71062,12.7043097 31.8103619,11.8330516 30.6668846,11.5373581 C28.594917,10.999971 20.2857596,10.999971 20.2857596,10.999971 C20.2857596,10.999971 11.9766021,10.999971 9.9044836,11.5373581 C8.76115731,11.8330516 7.86074821,12.7043097 7.55517679,13.810729 C7.00004529,15.8159871 7.00004529,19.999971 7.00004529,19.999971 C7.00004529,19.999971 7.00004529,24.1838097 7.55517679,26.1893581 C7.86074821,27.2956323 8.76115731,28.1668903 9.9044836,28.462729 C11.9766021,28.999971 20.2857596,28.999971 20.2857596,28.999971 C20.2857596,28.999971 28.594917,28.999971 30.6668846,28.462729 C31.8103619,28.1668903 32.71062,27.2956323 33.0161914,26.1893581 C33.5714739,24.1838097 33.5714739,19.999971 33.5714739,19.999971 C33.5714739,19.999971 33.5714739,15.8159871 33.0161914,13.810729" fill="#FFFFFF" id="Fill-1"/>
            <polygon fill="#FF2B06" id="Fill-4" points="17.2857143 23.8571429 24.1428571 20.0001474 17.2857143 16.1428571"/>
        </g>
    </g>
</svg>