<?xml version="1.0" encoding="utf-8"?>
<svg xmlns="http://www.w3.org/2000/svg" height="40px" version="1.1" viewBox="0 0 40 40" width="40px">
    
    <title>social_round_instagram</title>
    <desc>Created with Sketch.</desc>
    <defs>
        <rect height="40" id="path-1" rx="20" width="40" x="0" y="0"/>
        <radialGradient cx="26.562606%" cy="107.702073%" fx="26.562606%" fy="107.702073%" gradientTransform="translate(0.265626,1.077021),scale(0.999727,1.000000),rotate(-90.000000),translate(-0.265626,-1.077021)" id="radialGradient-3" r="99.107386%">
            <stop offset="0%" stop-color="#FFDD55"/>
            <stop offset="10%" stop-color="#FFDD55"/>
            <stop offset="50%" stop-color="#FF543E"/>
            <stop offset="100%" stop-color="#C837AB"/>
        </radialGradient>
        <radialGradient cx="-16.7505363%" cy="7.20377933%" fx="-16.7505363%" fy="7.20377933%" gradientTransform="translate(-0.167505,0.072038),scale(0.999727,1.000000),rotate(78.677642),translate(0.167505,-0.072038)" id="radialGradient-4" r="44.3018732%">
            <stop offset="0%" stop-color="#3771C8"/>
            <stop offset="12.8%" stop-color="#3771C8"/>
            <stop offset="100%" stop-color="#6600FF" stop-opacity="0"/>
        </radialGradient>
        <polygon id="path-5" points="2.57425743e-05 0.051490297 25.9403287 0.051490297 25.9403287 25.9918139 2.57425743e-05 25.9918139"/>
        <polygon id="path-7" points="2.57425743e-05 0.051490297 25.9403287 0.051490297 25.9403287 25.9918139 2.57425743e-05 25.9918139"/>
        <polygon id="path-9" points="2.57425743e-05 0.051490297 25.9403287 0.051490297 25.9403287 25.9918139 2.57425743e-05 25.9918139"/>
    </defs>
    <g fill="none" fill-rule="evenodd" id="Page-1" stroke="none" stroke-width="1">
        <g id="social_round_instagram">
            <g id="Group">
                <g id="Instagram_logo_2016-Clipped">
                    <mask fill="white" id="mask-2">
                        <use href="#path-1"/>
                    </mask>
                    <g id="path-1"/>
                    <g fill-rule="nonzero" id="Instagram_logo_2016" mask="url(#mask-2)">
                        <path d="M20.0104615,0 C11.6590769,0 9.21661538,0.00861538462 8.74184615,0.048 C7.028,0.190461538 5.96153846,0.460307692 4.79969231,1.03876923 C3.90430769,1.48338462 3.19815385,1.99876923 2.50123077,2.72123077 C1.232,4.03876923 0.462769231,5.65969231 0.184307692,7.58646154 C0.0489230769,8.52184615 0.00953846154,8.71261538 0.00153846154,13.4904615 C-0.00153846154,15.0830769 0.00153846154,17.1790769 0.00153846154,19.9904615 C0.00153846154,28.3350769 0.0107692308,30.7750769 0.0507692308,31.2489231 C0.189230769,32.9166154 0.450769231,33.9658462 1.00461538,35.1135385 C2.06307692,37.3104615 4.08461538,38.9596923 6.46615385,39.5750769 C7.29076923,39.7873846 8.20153846,39.9043077 9.37076923,39.9596923 C9.86615385,39.9812308 14.9153846,39.9966154 19.9676923,39.9966154 C25.02,39.9966154 30.0723077,39.9904615 30.5553846,39.9658462 C31.9092308,39.9021538 32.6953846,39.7966154 33.5646154,39.572 C35.9615385,38.9535385 37.9461538,37.3289231 39.0261538,35.1012308 C39.5692308,33.9812308 39.8446154,32.892 39.9692308,31.3113846 C39.9963077,30.9667692 40.0076923,25.4723077 40.0076923,19.9852308 C40.0076923,14.4972308 39.9953846,9.01292308 39.9683077,8.66830769 C39.8421538,7.06215385 39.5667692,5.98215385 39.0061538,4.84061538 C38.5461538,3.90615385 38.0353846,3.20830769 37.2938462,2.49476923 C35.9704615,1.23076923 34.352,0.461538462 32.4233846,0.183384615 C31.4889231,0.0483076923 31.3027692,0.00830769231 26.5212308,0 L20.0104615,0 Z" fill="url(#radialGradient-3)" id="Path"/>
                        <path d="M20.0104615,0 C11.6590769,0 9.21661538,0.00861538462 8.74184615,0.048 C7.028,0.190461538 5.96153846,0.460307692 4.79969231,1.03876923 C3.90430769,1.48338462 3.19815385,1.99876923 2.50123077,2.72123077 C1.232,4.03876923 0.462769231,5.65969231 0.184307692,7.58646154 C0.0489230769,8.52184615 0.00953846154,8.71261538 0.00153846154,13.4904615 C-0.00153846154,15.0830769 0.00153846154,17.1790769 0.00153846154,19.9904615 C0.00153846154,28.3350769 0.0107692308,30.7750769 0.0507692308,31.2489231 C0.189230769,32.9166154 0.450769231,33.9658462 1.00461538,35.1135385 C2.06307692,37.3104615 4.08461538,38.9596923 6.46615385,39.5750769 C7.29076923,39.7873846 8.20153846,39.9043077 9.37076923,39.9596923 C9.86615385,39.9812308 14.9153846,39.9966154 19.9676923,39.9966154 C25.02,39.9966154 30.0723077,39.9904615 30.5553846,39.9658462 C31.9092308,39.9021538 32.6953846,39.7966154 33.5646154,39.572 C35.9615385,38.9535385 37.9461538,37.3289231 39.0261538,35.1012308 C39.5692308,33.9812308 39.8446154,32.892 39.9692308,31.3113846 C39.9963077,30.9667692 40.0076923,25.4723077 40.0076923,19.9852308 C40.0076923,14.4972308 39.9953846,9.01292308 39.9683077,8.66830769 C39.8421538,7.06215385 39.5667692,5.98215385 39.0061538,4.84061538 C38.5461538,3.90615385 38.0353846,3.20830769 37.2938462,2.49476923 C35.9704615,1.23076923 34.352,0.461538462 32.4233846,0.183384615 C31.4889231,0.0483076923 31.3027692,0.00830769231 26.5212308,0 L20.0104615,0 Z" fill="url(#radialGradient-4)" id="Path"/>
                    </g>
                </g>
            </g>
            <g id="Group-8" transform="translate(6.750000, 7.000000)">
                <g id="Fill-1-Clipped">
                    <mask fill="white" id="mask-6">
                        <use href="#path-5"/>
                    </mask>
                    <g id="path-5"/>
                    <path d="M12.9701644,0.051490297 C9.44770495,0.051490297 9.00596238,0.0664209901 7.62260792,0.129541782 C6.24203366,0.192508119 5.29923762,0.411783366 4.47418812,0.732432871 C3.62133663,1.06384277 2.8979703,1.50733584 2.17692079,2.22838535 C1.4558198,2.94948634 1.01237822,3.67280119 0.680916832,4.52565267 C0.360267327,5.35070218 0.141043564,6.29349822 0.0780257426,7.67407248 C0.0149049505,9.05747842 2.57425743e-05,9.49911802 2.57425743e-05,13.0216289 C2.57425743e-05,16.5441398 0.0149049505,16.9858309 0.0780257426,18.3692368 C0.141043564,19.7497596 0.360267327,20.6926071 0.680916832,21.5176051 C1.01237822,22.3704566 1.4558198,23.093823 2.17692079,23.8148725 C2.8979703,24.5359735 3.62133663,24.979415 4.47418812,25.3109279 C5.29923762,25.6315259 6.24203366,25.8508012 7.62260792,25.913819 C9.00596238,25.9768883 9.44770495,25.991819 12.9701644,25.991819 C16.4926752,25.991819 16.9343149,25.9768883 18.3177208,25.913819 C19.698295,25.8508012 20.6410911,25.6315259 21.4661406,25.3109279 C22.3190436,24.979415 23.0423584,24.5359735 23.7634079,23.8148725 C24.4845089,23.093823 24.9279505,22.3705081 25.2594119,21.5176051 C25.5800614,20.6926071 25.7993366,19.7497596 25.862303,18.3692368 C25.9254238,16.9858309 25.9403545,16.5441398 25.9403545,13.0216289 C25.9403545,9.4991695 25.9254238,9.05747842 25.862303,7.67407248 C25.7993366,6.29349822 25.5800614,5.35070218 25.2594119,4.52565267 C24.9279505,3.67280119 24.4845089,2.94948634 23.7634079,2.22838535 C23.0423584,1.50733584 22.3190436,1.06384277 21.4661406,0.732432871 C20.6410911,0.411783366 19.698295,0.192508119 18.3177208,0.129541782 C16.9343149,0.0664209901 16.4926752,0.051490297 12.9701644,0.051490297 M12.9701644,2.38845267 C16.4333644,2.38845267 16.8435465,2.40163287 18.211198,2.46403287 C19.4757762,2.52174772 20.1625366,2.73304277 20.6195703,2.91066653 C21.2249842,3.14595366 21.657099,3.42701109 22.1109406,3.88085267 C22.5647822,4.33474574 22.8458396,4.76680911 23.0811782,5.37222297 C23.2587505,5.82925663 23.4700455,6.51601703 23.5277604,7.78059525 C23.5901089,9.14824673 23.6033406,9.5584804 23.6033406,13.0216289 C23.6033406,16.4848289 23.5901089,16.8950626 23.5277604,18.2626626 C23.4700455,19.5272923 23.2587505,20.2140527 23.0811782,20.6710863 C22.8458396,21.2764487 22.5647822,21.7085636 22.1109406,22.1624051 C21.657099,22.6162982 21.2249842,22.8973556 20.6195703,23.1326428 C20.1625366,23.310215 19.4757762,23.5215616 18.211198,23.579225 C16.8437525,23.641625 16.4336218,23.6548566 12.9701644,23.6548566 C9.50670693,23.6548566 9.09657624,23.641625 7.72913069,23.579225 C6.46455248,23.5215616 5.77774059,23.310215 5.32070693,23.1326428 C4.71534455,22.8973556 4.2832297,22.6162982 3.82938812,22.1624051 C3.37554653,21.7085636 3.09443762,21.2764487 2.8591505,20.6710863 C2.68157822,20.2140527 2.47028317,19.5272923 2.41256832,18.2627141 C2.35016832,16.8950626 2.33698812,16.4848289 2.33698812,13.0216289 C2.33698812,9.5584804 2.35016832,9.14824673 2.41256832,7.78059525 C2.47028317,6.51601703 2.68157822,5.82925663 2.8591505,5.37222297 C3.09443762,4.76680911 3.37554653,4.33474574 3.82938812,3.88090416 C4.2832297,3.42701109 4.71534455,3.14595366 5.32070693,2.91066653 C5.77774059,2.73304277 6.46455248,2.52174772 7.72907921,2.46403287 C9.09678218,2.40163287 9.50696436,2.38845267 12.9701644,2.38845267" fill="#FFFFFF" fill-rule="nonzero" id="Fill-1" mask="url(#mask-6)"/>
                </g>
                <g id="Fill-4-Clipped">
                    <mask fill="white" id="mask-8">
                        <use href="#path-7"/>
                    </mask>
                    <g id="path-5"/>
                    <path d="M12.9701644,17.3450428 C10.5824376,17.3450428 8.6467505,15.4093556 8.6467505,13.0216289 C8.6467505,10.6339022 10.5824376,8.69826653 12.9701644,8.69826653 C15.3578911,8.69826653 17.2935782,10.6339022 17.2935782,13.0216289 C17.2935782,15.4093556 15.3578911,17.3450428 12.9701644,17.3450428 L12.9701644,17.3450428 Z M6.30978812,13.0216289 C6.30978812,16.7000883 9.29175644,19.6820051 12.9701644,19.6820051 C16.6485723,19.6820051 19.6304891,16.7000883 19.6304891,13.0216289 C19.6304891,9.34322099 16.6485723,6.36130416 12.9701644,6.36130416 C9.29175644,6.36130416 6.30978812,9.34322099 6.30978812,13.0216289 Z" fill="#FFFFFF" fill-rule="nonzero" id="Fill-4" mask="url(#mask-8)"/>
                </g>
                <g id="Fill-6-Clipped">
                    <mask fill="white" id="mask-10">
                        <use href="#path-9"/>
                    </mask>
                    <g id="path-5"/>
                    <path d="M21.4500824,6.09815327 C21.4500824,6.95774931 20.7532824,7.65454931 19.8936863,7.65454931 C19.0340903,7.65454931 18.3372388,6.95774931 18.3372388,6.09815327 C18.3372388,5.23855723 19.0340903,4.54175723 19.8936863,4.54175723 C20.7532824,4.54175723 21.4500824,5.23855723 21.4500824,6.09815327" fill="#FFFFFF" fill-rule="nonzero" id="Fill-6" mask="url(#mask-10)"/>
                </g>
            </g>
        </g>
    </g>
</svg>