<svg xmlns="http://www.w3.org/2000/svg" width="130" height="55" viewBox="0 0 130 55" fill="none"><path d="M98.4873 49.0191H94.919C93.3831 49.0191 83.0368 48.853 80.5537 46.3563L83.5702 42.3091L93.0796 41.2708L94.1648 42.3599C95.3834 43.5828 97.3561 43.5828 98.5747 42.3599C99.7932 41.1369 99.7932 39.1572 98.5747 37.9342L95.526 34.8746L95.4294 34.9715V34.7961H88.164L88.2881 17.6519L83.0552 23.8635C80.7468 22.2575 77.9097 21.4545 74.9989 21.7083V13.7062L63.2041 26.9001L63.48 30.0659C62.965 30.0659 62.3994 30.0659 61.7741 30.0659C48.2963 30.0659 42.3322 6.45159 42.3322 6.45159L18.1541 0L6.81456 5.40863C3.16346 7.14843 0.878083 10.042 0.202125 13.78C-0.358873 16.8858 0.252707 20.4485 1.97709 24.0896L5.47184 31.4642C6.66741 33.9747 8.66309 38.1788 7.8032 40.6062C7.63306 41.0862 7.2606 41.7922 5.95926 42.4106C4.42341 43.1444 3.77045 44.9857 4.50158 46.5271C5.03039 47.6393 6.134 48.29 7.28359 48.29C7.72503 48.29 8.17567 48.1931 8.60331 47.99C11.0956 46.7994 12.7786 45.0134 13.6063 42.6737C15.3169 37.8327 12.6361 32.1841 11.0312 28.806L7.54109 21.4361C6.39151 19.0086 5.94087 16.6827 6.26275 14.8829C6.58004 13.1385 7.62387 11.8648 9.46321 10.988L10.5622 10.4665C9.4816 14.8876 10.2081 19.5809 12.5625 23.4528C13.266 25.008 14.3375 27.5369 15.8641 31.538C19.0646 39.9278 16.3056 43.7766 16.3056 43.7766L23.9434 55H30.9559V53.5555C30.9559 51.5896 29.5764 49.9513 27.7371 49.5545L24.4952 43.209L27.7922 38.8526L27.8428 38.8618C27.8704 42.1984 26.7392 43.7766 26.7392 43.7766L34.3771 55H41.3896V53.5555C41.3896 51.5896 40.0101 49.9513 38.1707 49.5545L34.9289 43.209L37.0165 40.4493C47.9514 51.4235 62.1235 54.9954 79.3811 54.9954H102.961V54.3447C102.961 51.405 101.499 49.0191 98.4873 49.0191Z" fill="#000"/><path d="M128.883 48.5647C129.596 48.454 130.088 47.7894 129.987 47.0695C129.886 46.3496 129.223 45.8512 128.511 45.9481C129.049 45.4681 129.109 44.6421 128.635 44.0929C128.161 43.5437 127.338 43.4838 126.786 43.9499C126.979 43.253 126.584 42.5285 125.89 42.3208C125.195 42.1178 124.469 42.51 124.262 43.2022C124.05 42.51 123.324 42.1131 122.634 42.3208C121.94 42.5239 121.544 43.253 121.737 43.9499C121.186 43.4838 120.362 43.5437 119.889 44.0929C119.415 44.6421 119.47 45.4681 120.013 45.9481C119.3 45.8512 118.638 46.3496 118.537 47.0695C118.436 47.7894 118.928 48.454 119.64 48.5647C118.988 48.8739 118.702 49.6492 119.001 50.3091C119.3 50.9691 120.073 51.2598 120.735 50.9691C120.717 51.0014 120.703 51.0383 120.684 51.0706C119.59 51.9197 118.629 52.4504 118.118 52.3535C117.769 52.2843 117.732 52.2289 117.484 51.6751C117.167 50.9691 116.638 49.7831 114.831 49.3308C111.649 48.5278 108.844 51.7213 108.535 52.0859C108.094 52.6074 108.158 53.3826 108.678 53.8257C109.193 54.2687 109.97 54.2041 110.412 53.6872C110.945 53.0642 112.789 51.366 114.237 51.7259C114.886 51.8874 114.982 52.1043 115.24 52.6858C115.534 53.3457 116.031 54.4533 117.636 54.7763C117.746 54.7994 117.902 54.8179 118.105 54.8179C118.896 54.8179 120.376 54.5041 122.537 52.7966C122.634 52.7366 122.721 52.6673 122.8 52.5843C122.85 52.5427 122.901 52.4966 122.956 52.4551C122.993 53.1519 123.563 53.7103 124.266 53.7103C124.97 53.7103 125.577 53.1242 125.582 52.4043C125.977 53.0088 126.786 53.1842 127.393 52.7919C128 52.3997 128.18 51.5921 127.798 50.9783C128.456 51.2737 129.228 50.9783 129.532 50.3184C129.83 49.6584 129.545 48.8832 128.892 48.574L128.883 48.5647Z" fill="#000"/></svg>