<svg xmlns="http://www.w3.org/2000/svg" width="108" height="53" viewBox="0 0 108 53" fill="none"><path d="M108 12.3878C108 5.54936 102.472 0 95.6551 0C94.5723 0 93.5232 0.139474 92.5204 0.405742C98.9288 0.925598 103.943 5.60431 103.943 11.3016C103.943 16.217 100.214 20.3716 95.0779 21.7579L52.9071 18.9008L52.8818 18.998L33.5934 17.6624C35.0849 16.5889 36.1341 15.938 36.4627 15.9549C53.7624 16.7707 54.6051 3.62632 54.6051 3.62632L26.0264 2.40064L22.719 22.4045L11.4864 14.5306L23.3636 3.03884C23.4774 2.94163 23.3636 2.76411 23.2288 2.82329C21.4171 3.62209 6.37985 5.28309 2.06124 18.1274C2.0486 18.1189 2.04439 18.1147 2.04439 18.1147C2.04439 18.1147 -4.21655 36.6055 5.17486 44.6273C9.20275 48.0677 4.47966 53 4.47966 53H10.2182C10.2182 53 13.968 48.7059 17.3639 44.154C17.5324 44.3146 17.6925 44.4752 17.8695 44.6273C21.8974 48.0677 17.1743 53 17.1743 53H22.9128C22.9128 53 26.5151 48.875 29.8563 44.4245L63.7774 40.7897C63.7774 40.7897 63.8364 40.7897 63.9459 40.7982C64.6875 42.1506 65.7029 43.4482 67.0806 44.6273C71.1085 48.0677 66.3854 53 66.3854 53H72.1239C72.1239 53 75.8695 48.7144 79.2612 44.1624C79.4297 44.3188 79.5941 44.4752 79.7752 44.6273C83.8031 48.0677 79.08 53 79.08 53H84.8185C84.8185 53 90.3211 46.7913 94.0288 41.3856C98.2968 35.7179 99.0847 30.4771 98.912 26.8719C104.693 24.0486 108 17.9921 108 12.3878Z" fill="#000" stroke="black" stroke-width="0.01" stroke-miterlimit="10"/></svg>