<svg xmlns="http://www.w3.org/2000/svg" width="94" height="79" viewBox="0 0 94 79" fill="none"><path d="M10.3218 17.7723C12.7507 16.7087 11.6889 13.8193 11.6889 13.8193L17.0149 9.72394V0.209961L25.4722 8.68126V0.209961L34.9704 9.72394L41.4252 25.6113L74.6523 53.4581L94 78.0931C93.4649 78.6291 83.4065 77.5111 78.0637 70.7106C74.46 66.1253 73.8873 60.1623 74.0838 56.5736L69.9868 78.001H58.5405L58.4986 78.068L58.4568 78.001H45.819L53.7746 70.987L39.1092 62.1597L30.631 77.955H22.8761C22.8761 77.955 29.2598 67.2098 29.3601 56.5066L17.8468 77.955H10.0919C10.0919 77.955 20.6813 60.1372 14.7992 47.5328L9.05511 39.9283L12.2198 27.9102C9.7658 27.9228 7.55429 27.9144 6.14544 27.8725C1.13712 27.7218 0 20.8041 0 20.8041C0 20.8041 7.88873 18.8276 10.3176 17.7639L10.3218 17.7723ZM74.5437 53.6424C74.5562 53.6131 74.5687 53.5837 74.5813 53.5586L74.5311 53.6382H74.5437V53.6424Z" fill="#000"/></svg>