<svg xmlns="http://www.w3.org/2000/svg" width="240" height="64" viewBox="0 0 240 64"><g><g><g><g><g><path fill="#55b800" d="M46.923 59.316l.912-2.831.85 2.83zM44.47 61.36c-.031.157-.063.283-.063.44 0 .126 0 .283.063.44h2.453c.032-.157.063-.283.063-.44 0-.126 0-.283-.063-.44h-.66l.346-1.1h2.327l.346 1.1h-.66a1.004 1.004 0 0 0-.095.44c0 .157.032.315.095.44h2.516a.454.454 0 0 0 .063-.22c.031-.063.031-.157.031-.22s-.031-.126-.031-.22c-.032-.063-.032-.157-.063-.22h-.566l-1.982-6.102h-1.447l-2.075 6.102z"/></g><g><path fill="#55b800" d="M52.364 61.454v-3.302h-.566c-.063-.126-.063-.283-.063-.409s.032-.283.063-.409h1.636l.031.566c.126-.157.283-.346.535-.471.22-.158.503-.22.817-.22.315 0 .598.062.818.188.22.126.409.315.503.566.189-.251.41-.472.63-.566.22-.126.502-.189.817-.189.503 0 .88.158 1.164.472.283.315.409.755.409 1.321v2.453h.566c.063.126.063.283.063.409s-.032.283-.063.409h-2.265c-.063-.126-.063-.283-.063-.409s.032-.283.063-.409h.503v-2.327c0-.315-.031-.566-.125-.755-.095-.189-.283-.252-.535-.252-.094 0-.189.032-.283.063a.743.743 0 0 0-.283.189c-.095.094-.157.22-.22.409-.063.157-.095.377-.095.66v2.013h.504c.062.126.062.283.062.41 0 .125-.031.282-.062.408h-2.202c-.063-.126-.063-.283-.063-.409s.032-.283.063-.409h.503v-2.327c0-.315-.031-.566-.126-.755-.094-.189-.283-.252-.534-.252a.918.918 0 0 0-.283.063.742.742 0 0 0-.283.19c-.095.093-.158.22-.22.408-.063.157-.095.377-.095.66v2.013h.503c.063.126.063.283.063.41 0 .125-.031.282-.063.408h-2.39c-.063-.126-.063-.283-.063-.409s.032-.283.063-.409h.566z"/></g><g><path fill="#55b800" d="M63.718 59.347H61.83c.031-.377.126-.692.283-.912.126-.22.377-.346.66-.346.315 0 .535.094.692.315.158.22.252.534.252.912zm.943 1.573a6.147 6.147 0 0 1-.817.377c-.252.094-.535.126-.85.126-.188 0-.345-.032-.503-.095-.125-.062-.283-.157-.377-.283a1.292 1.292 0 0 1-.252-.408 1.304 1.304 0 0 1-.094-.504h3.145v-.44c0-.283-.031-.598-.094-.88a2.38 2.38 0 0 0-.346-.818 1.966 1.966 0 0 0-.66-.566c-.284-.158-.63-.22-1.039-.22-.377 0-.723.062-1.006.22a2.119 2.119 0 0 0-.692.597c-.189.22-.314.503-.409.818a3.247 3.247 0 0 0-.126.943c0 .315.063.63.158.944.094.283.251.566.44.818.189.251.472.44.786.597.315.157.724.22 1.164.22.314 0 .629-.031.912-.126.283-.062.535-.188.755-.283z"/></g><g><path fill="#55b800" d="M66.36 61.454v-3.302h-.566c-.063-.126-.063-.283-.063-.409s.031-.283.063-.409h1.604l.031.786c.157-.283.346-.503.566-.629.22-.125.44-.188.66-.188.095 0 .22 0 .315.031.094.032.189.063.252.095l-.126 1.037c-.063-.031-.157-.063-.22-.094-.095-.031-.189-.031-.315-.031-.094 0-.188.031-.314.062a.653.653 0 0 0-.315.19c-.094.094-.188.22-.251.377a1.585 1.585 0 0 0-.095.597v1.856h.66c.064.126.064.283.064.409 0 .125-.032.283-.063.408h-2.453c-.063-.125-.063-.283-.063-.408 0-.126.031-.283.063-.41h.566v.032z"/></g><g><path fill="#55b800" d="M71.423 56.422c.157-.126.22-.314.22-.535a.69.69 0 0 0-.22-.534.626.626 0 0 0-.503-.22.67.67 0 0 0-.503.22c-.157.126-.22.314-.22.534 0 .22.063.378.22.535.126.157.314.22.503.22a.626.626 0 0 0 .503-.22zm-1.51 5.032a1.84 1.84 0 0 0-.062.409c0 .126 0 .283.063.409h2.295a1.84 1.84 0 0 0 .063-.409c0-.126 0-.283-.063-.409h-.534v-4.12h-1.761a1.841 1.841 0 0 0-.063.409c0 .126 0 .283.063.409h.534v3.302z"/></g><g><path fill="#55b800" d="M77.273 61.895c-.094.062-.189.094-.315.157a1.58 1.58 0 0 1-.408.157c-.158.031-.315.094-.504.126a3.482 3.482 0 0 1-.597.063c-.409 0-.723-.063-1.038-.189a2.169 2.169 0 0 1-.755-.566 2.937 2.937 0 0 1-.472-.818 3.33 3.33 0 0 1-.157-.975c0-.346.032-.692.126-1.006.094-.315.22-.598.409-.85.189-.251.409-.44.692-.597.283-.157.597-.22.975-.22a1.6 1.6 0 0 1 .692.157c.188.095.346.22.471.378v-.346c.126-.063.283-.063.41-.063.156 0 .282.031.44.094v1.981a1.262 1.262 0 0 1-.472.095c-.157 0-.315-.032-.44-.095v-.314c0-.315-.095-.566-.252-.723a1.015 1.015 0 0 0-.66-.252.9.9 0 0 0-.535.157c-.157.095-.252.252-.346.41a1.502 1.502 0 0 0-.189.565c-.031.22-.063.41-.063.63 0 .502.126.911.378 1.194.251.283.566.41.975.41.188 0 .346-.032.471-.064.158-.031.283-.094.41-.157.125-.063.25-.126.377-.22.125-.094.251-.189.346-.283l.031 1.164z"/></g><g><path fill="#55b800" d="M81.33 59.913l-.031.003v-.003h.031zm-.031.003v.72a.634.634 0 0 1-.095.346c-.063.126-.157.19-.251.283a1.063 1.063 0 0 1-.378.19c-.157.03-.283.062-.44.062-.22 0-.409-.063-.535-.189a.62.62 0 0 1-.188-.44c0-.252.094-.44.22-.597.157-.158.377-.252.692-.284zm.188 2.324h1.573a1.84 1.84 0 0 0 .063-.408c0-.126 0-.284-.063-.41h-.535v-2.515a2.16 2.16 0 0 0-.094-.692 1.667 1.667 0 0 0-.252-.472.925.925 0 0 0-.377-.315 2.185 2.185 0 0 0-.409-.157 1.84 1.84 0 0 0-.409-.063c-.126-.031-.251-.031-.346-.031-.251 0-.472.031-.66.063a2.663 2.663 0 0 0-.535.126c-.157.062-.283.125-.409.188s-.22.095-.314.158v.975c.314-.19.597-.315.849-.44.252-.095.535-.158.818-.158.188 0 .346.031.471.063.158.031.252.094.315.189a.983.983 0 0 1 .157.314c.032.126.032.283.032.44l-1.038.095c-.378 0-.692.094-1.007.188a1.604 1.604 0 0 0-.755.504c-.22.251-.314.566-.314 1.006 0 .252.031.472.126.66.094.19.22.346.377.472s.315.22.535.283a2.447 2.447 0 0 0 1.541-.063c.22-.125.409-.251.566-.44z"/></g><g><path fill="#55b800" d="M84.35 61.454v-3.302h-.567c-.063-.126-.063-.283-.063-.409s.032-.283.063-.409h1.636l.031.566c.126-.157.283-.346.535-.471.251-.158.534-.22.912-.22.534 0 .943.157 1.226.471.283.315.41.755.41 1.321v2.453h.565c.063.126.063.283.063.409s-.031.283-.063.409h-2.296c-.062-.126-.062-.283-.062-.409s.031-.283.062-.409h.504v-2.327c0-.315-.063-.566-.158-.755-.094-.189-.314-.252-.597-.252-.095 0-.22.032-.346.063a.653.653 0 0 0-.315.189c-.094.094-.188.22-.251.409-.063.157-.095.377-.095.66v2.013h.504c.063.126.063.283.063.41 0 .125-.032.282-.063.408h-2.296c-.063-.126-.063-.283-.063-.409s.031-.283.063-.409h.597z"/></g><g><path fill="#55b800" d="M93.03 56.233h-.535c-.031-.062-.063-.125-.063-.188-.031-.063-.031-.158-.031-.22 0-.158.031-.315.094-.472h2.485c.063.157.094.314.094.472 0 .062 0 .157-.031.22a.583.583 0 0 1-.063.22h-.724l1.478 4.717 1.541-4.717h-.691c-.032-.063-.063-.126-.063-.22 0-.063-.032-.158-.032-.22 0-.158.032-.315.095-.472h2.39c.063.157.094.314.094.472 0 .062 0 .157-.031.22a.583.583 0 0 1-.063.22h-.535l-2.044 6.101H95.01z"/></g><g><path fill="#55b800" d="M102.842 59.347h-1.887c.032-.377.126-.692.283-.912.126-.22.346-.346.66-.346.315 0 .535.094.693.315.157.22.251.534.251.912zm1.038 2.61zm0 0h-.094V60.92a6.15 6.15 0 0 1-.818.377c-.252.094-.535.126-.85.126-.188 0-.345-.032-.502-.095a1.691 1.691 0 0 1-.378-.283 1.292 1.292 0 0 1-.251-.408 1.304 1.304 0 0 1-.095-.504h3.145v-.44a4.19 4.19 0 0 0-.094-.88 2.38 2.38 0 0 0-.346-.818 1.967 1.967 0 0 0-.66-.566c-.283-.158-.63-.22-1.038-.22-.378 0-.724.062-1.007.22a2.568 2.568 0 0 0-.692.597c-.188.22-.314.503-.408.818a3.247 3.247 0 0 0-.126.943c0 .315.063.63.157.944.094.283.252.566.44.818.189.251.472.44.787.597.314.157.723.22 1.163.22.315 0 .63-.031.912-.126.283-.062.535-.188.755-.283z"/></g><g><path fill="#55b800" d="M105.327 58.152h-.598c-.063-.157-.063-.315-.063-.44 0-.126.032-.283.063-.41h.598v-1.131l1.226-.63v1.762h.975c.063.126.063.283.063.409 0 .125-.031.251-.063.44h-.975v2.736c0 .22.032.346.126.44a.531.531 0 0 0 .315.095c.125 0 .22 0 .314-.032.095-.031.22-.063.378-.157v.88a3.094 3.094 0 0 1-.504.158c-.188.031-.346.031-.471.031-.504 0-.85-.125-1.07-.377-.22-.252-.314-.629-.314-1.132z"/></g><g><path fill="#55b800" d="M111.585 59.347h-1.887c.032-.377.126-.692.283-.912.126-.22.378-.346.661-.346.314 0 .535.094.692.315.157.22.251.534.251.912zm.913 1.573a6.152 6.152 0 0 1-.818.377c-.252.094-.535.126-.85.126-.188 0-.345-.032-.503-.095-.125-.062-.283-.157-.377-.283a1.291 1.291 0 0 1-.252-.408 1.303 1.303 0 0 1-.094-.504h3.145v-.44c0-.283-.031-.598-.094-.88a2.38 2.38 0 0 0-.346-.818 1.966 1.966 0 0 0-.66-.566c-.284-.158-.63-.22-1.039-.22-.377 0-.723.062-1.006.22a2.118 2.118 0 0 0-.692.597c-.189.22-.314.503-.409.818a3.247 3.247 0 0 0-.126.943c0 .315.063.63.158.944.094.283.251.566.44.818.189.251.472.44.786.597.315.157.724.22 1.164.22.314 0 .629-.031.912-.126.283-.062.535-.188.755-.283z"/></g><g><path fill="#55b800" d="M114.227 61.454v-3.302h-.566c-.063-.126-.063-.283-.063-.409s.032-.283.063-.409h1.604l.032.786c.157-.283.346-.503.566-.629.22-.125.44-.188.66-.188.095 0 .22 0 .315.031.094.032.188.063.251.095l-.126 1.037c-.062-.031-.157-.063-.22-.094-.094-.031-.188-.031-.314-.031-.095 0-.189.031-.315.062a.652.652 0 0 0-.314.19 1.13 1.13 0 0 0-.252.377 1.585 1.585 0 0 0-.094.597v1.856h.66c.063.126.063.283.063.409 0 .125-.031.283-.063.408h-2.453c-.063-.125-.063-.283-.063-.408 0-.126.032-.283.063-.41h.566v.032z"/></g><g><path fill="#55b800" d="M119.29 56.422c.158-.126.22-.314.22-.535a.69.69 0 0 0-.22-.534.626.626 0 0 0-.502-.22.67.67 0 0 0-.504.22c-.157.126-.22.314-.22.534 0 .22.063.378.22.535.126.157.315.22.504.22a.67.67 0 0 0 .503-.22zm-1.54 5.032a1.84 1.84 0 0 0-.063.409c0 .126 0 .283.063.409h2.296a1.84 1.84 0 0 0 .063-.409c0-.126 0-.283-.063-.409h-.535v-4.12h-1.761a1.842 1.842 0 0 0-.063.409c0 .126 0 .283.063.409h.534v3.302z"/></g><g><path fill="#55b800" d="M121.46 61.454v-3.302h-.565c-.063-.126-.063-.283-.063-.409s.031-.283.063-.409h1.635l.032.566c.125-.157.283-.346.534-.471.252-.158.535-.22.912-.22.535 0 .944.157 1.227.471.283.315.409.755.409 1.321v2.453h.566c.063.126.063.283.063.409s-.032.283-.063.409h-2.296c-.063-.126-.063-.283-.063-.409s.032-.283.063-.409h.503v-2.327c0-.315-.063-.566-.157-.755-.094-.189-.314-.252-.598-.252-.094 0-.22.032-.346.063a.653.653 0 0 0-.314.189c-.094.094-.189.22-.252.409-.063.157-.094.377-.094.66v2.013h.503c.063.126.063.283.063.41 0 .125-.031.282-.063.408h-2.296c-.063-.126-.063-.283-.063-.409s.032-.283.063-.409h.598z"/></g><g><path fill="#55b800" d="M130.047 59.913l-.032.003v-.003h.032zm-.032.003v.72a.634.634 0 0 1-.094.346c-.063.126-.157.19-.252.283a1.063 1.063 0 0 1-.377.19c-.157.03-.283.062-.44.062-.22 0-.41-.063-.535-.189a.62.62 0 0 1-.189-.44c0-.252.095-.44.22-.597.158-.158.378-.252.692-.284zm.22 2.324h1.573a1.84 1.84 0 0 0 .063-.408c0-.126 0-.284-.063-.41h-.535v-2.515a2.16 2.16 0 0 0-.094-.692 1.668 1.668 0 0 0-.252-.472.925.925 0 0 0-.377-.315 2.185 2.185 0 0 0-.409-.157 1.84 1.84 0 0 0-.409-.063c-.125-.031-.251-.031-.346-.031-.251 0-.471.031-.66.063a2.663 2.663 0 0 0-.535.126c-.157.062-.283.125-.409.188-.125.063-.22.095-.314.158v.975c.314-.19.597-.315.85-.44.25-.095.534-.158.817-.158.189 0 .346.031.472.063.157.031.251.094.314.189.063.094.126.188.157.314.032.126.032.283.032.44l-1.038.095c-.378 0-.692.094-1.007.188a1.604 1.604 0 0 0-.754.504c-.22.251-.315.566-.315 1.006 0 .252.032.472.126.66.094.19.22.346.377.472.158.126.315.22.535.283a2.447 2.447 0 0 0 1.541-.063c.22-.125.409-.251.566-.44z"/></g><g><path fill="#55b800" d="M133.098 61.454v-3.302h-.567c-.062-.126-.062-.283-.062-.409s.031-.283.062-.409h1.604l.032.786c.157-.283.346-.503.566-.629.22-.125.44-.188.66-.188.095 0 .22 0 .315.031.094.032.189.063.252.095l-.126 1.037c-.063-.031-.157-.063-.22-.094-.095-.031-.19-.031-.315-.031-.094 0-.189.031-.314.062a.652.652 0 0 0-.315.19c-.094.094-.189.22-.252.377a1.586 1.586 0 0 0-.094.597v1.856h.66c.064.126.064.283.064.409 0 .125-.032.283-.063.408h-2.454c-.062-.125-.062-.283-.062-.408 0-.126.031-.283.062-.41h.567v.032z"/></g><g><path fill="#55b800" d="M136.652 62.964c.251.094.44.126.566.157.125 0 .251.032.346.032a.566.566 0 0 0 .471-.22c.126-.126.252-.378.346-.693l-1.572-4.088h-.44c-.063-.126-.063-.283-.063-.409s.031-.283.062-.409h2.14a.969.969 0 0 1 .093.41.968.968 0 0 1-.094.408h-.503l.975 2.83.975-2.83h-.472c-.063-.126-.063-.283-.063-.409s.032-.283.063-.409h2.044c.063.126.063.283.063.41 0 .125-.031.282-.063.408h-.408l-1.636 4.309c-.094.283-.22.534-.346.723a2.008 2.008 0 0 1-.409.472c-.157.126-.283.22-.471.251a1.47 1.47 0 0 1-.535.095h-.315c-.094 0-.188 0-.251-.032-.095 0-.158-.031-.252-.063-.094-.031-.157-.031-.251-.063v-.88z"/></g><g><path fill="#55b800" d="M145.583 61.36v-5.127h-.629a.447.447 0 0 1-.063-.188c-.031-.063-.031-.158-.031-.22 0-.158.031-.315.094-.472h2.233l1.667 5.378 1.699-5.378h2.201c.063.157.094.314.094.472 0 .062 0 .157-.031.22a.337.337 0 0 1-.063.188h-.629v5.127h.63c.062.126.093.283.093.44 0 .157-.031.315-.094.44h-2.453a.583.583 0 0 1-.063-.22c-.031-.063-.031-.157-.031-.22 0-.157.031-.314.094-.44h.629v-4.372l-1.604 5.095h-1.1l-1.573-5.095v4.372h.629c.031.063.063.126.094.22.032.063.032.157.032.22s0 .157-.032.22c-.031.095-.031.158-.094.252h-2.36a.584.584 0 0 1-.062-.22c0-.063-.031-.157-.031-.22s0-.158.031-.22c0-.063.031-.158.063-.22h.66z"/></g><g><path fill="#55b800" d="M156.874 59.347h-1.887c.032-.377.126-.692.283-.912.126-.22.378-.346.66-.346.315 0 .535.094.693.315.157.22.251.534.251.912zm.944 1.573a6.15 6.15 0 0 1-.818.377c-.252.094-.535.126-.85.126-.188 0-.345-.032-.503-.095-.125-.062-.283-.157-.377-.283a1.294 1.294 0 0 1-.251-.408 1.303 1.303 0 0 1-.095-.504h3.145v-.44c0-.283-.031-.598-.094-.88a2.38 2.38 0 0 0-.346-.818 1.966 1.966 0 0 0-.66-.566c-.284-.158-.63-.22-1.038-.22-.378 0-.724.062-1.007.22a2.12 2.12 0 0 0-.692.597c-.188.22-.314.503-.409.818a3.25 3.25 0 0 0-.125.943c0 .315.063.63.157.944.094.283.251.566.44.818.189.251.472.44.786.597.315.157.724.22 1.164.22.315 0 .63-.031.912-.126.283-.062.535-.188.755-.283z"/></g><g><path fill="#55b800" d="M161.34 61.486c-.346 0-.597-.158-.85-.44-.188-.315-.282-.693-.282-1.164 0-.158 0-.315.031-.535.032-.22.095-.409.158-.598.094-.188.188-.346.346-.471.157-.126.346-.189.597-.189.22 0 .409.063.566.189.126.125.252.283.315.471.094.19.125.378.157.567.031.188.031.377.031.503 0 .346-.031.629-.125.849-.063.22-.158.377-.283.503a.66.66 0 0 1-.346.252c-.126.031-.22.063-.315.063zm1.164.786h1.667c.031-.126.063-.283.063-.409s0-.283-.063-.409h-.566V55.07h-1.762a.969.969 0 0 0-.094.409c0 .125.031.283.094.408h.535v1.919a1.145 1.145 0 0 0-.503-.44 1.866 1.866 0 0 0-.724-.158c-.346 0-.66.063-.912.19a2.152 2.152 0 0 0-.66.534c-.189.22-.315.503-.409.817-.126.315-.157.66-.157 1.007 0 .314.031.597.094.912.063.314.189.597.346.85.189.25.377.47.66.628.252.157.598.252 1.007.252.566 0 1.038-.252 1.352-.724z"/></g><g><path fill="#55b800" d="M166.498 56.422c.157-.126.22-.314.22-.535 0-.22-.094-.377-.22-.534a.626.626 0 0 0-.503-.22.67.67 0 0 0-.503.22c-.158.126-.22.314-.22.534 0 .22.062.378.22.535.125.157.314.22.503.22.22 0 .377-.063.503-.22zm-1.51 5.032a1.841 1.841 0 0 0-.063.409c0 .126 0 .283.063.409h2.296c.032-.126.063-.283.063-.409s0-.283-.063-.409h-.534v-4.12h-1.762a1.841 1.841 0 0 0-.063.409c0 .126 0 .283.063.409h.535v3.302z"/></g><g><path fill="#55b800" d="M172.348 61.895c-.095.062-.189.094-.315.157-.125.063-.251.126-.409.157-.157.031-.314.094-.503.126a3.482 3.482 0 0 1-.597.063 2.77 2.77 0 0 1-1.038-.189 2.17 2.17 0 0 1-1.195-1.384 3.334 3.334 0 0 1-.158-.975c0-.346.032-.692.126-1.006.095-.315.22-.598.41-.85a2.12 2.12 0 0 1 .691-.597c.283-.157.598-.22.975-.22a1.6 1.6 0 0 1 .692.157c.189.095.346.22.44.378v-.346c.126-.063.283-.063.409-.063.157 0 .283.031.44.094v1.981a1.262 1.262 0 0 1-.471.095c-.158 0-.315-.032-.472-.095v-.314c0-.315-.094-.566-.252-.723a1.015 1.015 0 0 0-.66-.252.9.9 0 0 0-.535.157c-.157.095-.251.252-.346.41a1.502 1.502 0 0 0-.189.565c-.031.22-.062.41-.062.63 0 .502.125.911.377 1.194.252.283.566.41.975.41.189 0 .346-.032.472-.064.157-.031.283-.094.409-.157.125-.063.251-.126.377-.22s.252-.189.346-.283z"/></g><g><path fill="#55b800" d="M176.405 60.636a.633.633 0 0 1-.094.346c-.063.126-.158.19-.252.283a1.062 1.062 0 0 1-.377.19c-.158.03-.283.062-.44.062-.22 0-.41-.063-.535-.189a.62.62 0 0 1-.19-.44c0-.252.064-.44.19-.597.157-.158.377-.252.692-.284l1.006-.094zm.157 1.604h1.573c.031-.125.063-.283.063-.408 0-.126 0-.284-.063-.41h-.535v-2.515c0-.283-.031-.504-.094-.692a1.665 1.665 0 0 0-.252-.472.925.925 0 0 0-.377-.315 2.186 2.186 0 0 0-.41-.157 1.84 1.84 0 0 0-.408-.063c-.126-.031-.252-.031-.346-.031-.252 0-.472.031-.66.063a2.662 2.662 0 0 0-.535.126 5.118 5.118 0 0 0-.409.188c-.126.063-.22.095-.314.158v.975c.314-.19.597-.315.849-.44.251-.095.534-.158.817-.158.19 0 .346.031.472.063.157.031.252.094.315.189.063.094.126.188.157.314s.031.283.031.44c-.314.032-.66.063-1.006.095-.377 0-.692.094-1.006.188a1.604 1.604 0 0 0-.755.504c-.22.251-.315.566-.315 1.006 0 .252.032.472.126.66.063.19.189.346.346.472.157.126.315.22.535.283a2.447 2.447 0 0 0 1.541-.063c.22-.125.409-.251.566-.44z"/></g><g><path fill="#55b800" d="M179.393 61.454v-5.567h-.535c-.063-.125-.063-.283-.063-.408 0-.126.031-.283.063-.41h1.761v6.385h.535c.063.126.063.283.063.41 0 .125-.032.282-.063.408h-2.296c-.063-.126-.063-.283-.063-.409s.031-.283.063-.409z"/></g><g><path fill="#55b800" d="M187.004 59.316l.912-2.831.849 2.83zm-2.453 2.044c-.032.157-.063.283-.063.44 0 .126 0 .283.063.44h2.453c.031-.157.063-.283.063-.44 0-.126 0-.283-.063-.44h-.66l.345-1.1h2.328l.345 1.1h-.66a1.005 1.005 0 0 0-.094.44c0 .157.031.315.094.44h2.516c0-.062.031-.125.031-.22.032-.063.032-.157.032-.22s-.032-.126-.032-.22c0-.063 0-.157-.031-.22h-.566l-1.981-6.102h-1.447l-2.076 6.102z"/></g><g><path fill="#55b800" d="M192.004 60.51c.095-.062.252-.094.41-.094.062 0 .125 0 .22.032.062 0 .125.031.188.094v.157c0 .126.031.22.094.315a1.2 1.2 0 0 0 .283.283.975.975 0 0 0 .41.189c.156.063.314.063.502.063.126 0 .22 0 .346-.032l.283-.094a.322.322 0 0 0 .19-.158c.062-.062.062-.157.062-.251a.594.594 0 0 0-.063-.252.535.535 0 0 0-.189-.188 1.05 1.05 0 0 0-.377-.158c-.157-.063-.346-.094-.598-.157-.188-.031-.377-.094-.566-.157-.188-.063-.408-.126-.566-.252-.188-.094-.314-.251-.44-.409-.126-.157-.157-.377-.157-.66 0-.283.063-.535.188-.723.126-.19.252-.346.44-.472.19-.126.378-.22.598-.252.22-.063.41-.094.598-.094.314 0 .566.031.755.126.188.094.346.188.44.314v-.283c.063-.031.157-.031.22-.063.063 0 .126-.031.189-.031.126 0 .283.031.409.094v1.541a.87.87 0 0 1-.41.094c-.125 0-.25-.031-.408-.094v-.126a.714.714 0 0 0-.283-.566 1.147 1.147 0 0 0-.755-.251c-.314 0-.535.063-.692.157a.458.458 0 0 0-.22.409c0 .094 0 .157.032.22a.378.378 0 0 0 .157.157c.094.063.22.094.377.157s.377.095.66.158c.22.063.41.094.63.157.22.063.408.157.566.283.157.126.314.283.408.472.095.188.158.44.158.755 0 .251-.063.471-.158.66a1.11 1.11 0 0 1-.408.44 2.01 2.01 0 0 1-.598.252c-.22.063-.472.094-.723.094-.189 0-.346 0-.472-.031l-.377-.095c-.126-.031-.22-.094-.315-.157l-.283-.189v.284l-.189.094c-.063.031-.157.031-.22.031s-.157 0-.22-.031c-.063 0-.126-.032-.189-.094V60.51h.063z"/></g><g><path fill="#55b800" d="M197.225 60.51c.094-.062.252-.094.409-.094.063 0 .126 0 .22.032.063 0 .126.031.189.094v.157c0 .126.031.22.094.315.063.094.157.189.283.283a.975.975 0 0 0 .409.189c.157.063.315.063.503.063.126 0 .22 0 .346-.032l.283-.094a.322.322 0 0 0 .189-.158c.063-.062.063-.157.063-.251a.593.593 0 0 0-.063-.252.534.534 0 0 0-.189-.188 1.164 1.164 0 0 0-.346-.158c-.157-.063-.346-.094-.597-.157-.189-.031-.378-.094-.566-.157-.189-.063-.378-.126-.566-.252-.19-.094-.315-.251-.44-.409-.127-.157-.158-.377-.158-.66 0-.283.063-.535.189-.723.125-.19.251-.346.44-.472s.377-.22.598-.252c.22-.063.408-.094.597-.094.315 0 .566.031.755.126.189.094.346.188.44.314v-.283c.063-.031.157-.031.22-.063.063 0 .126-.031.189-.031.126 0 .283.031.409.094v1.541a.87.87 0 0 1-.409.094c-.126 0-.252-.031-.409-.094v-.126a.715.715 0 0 0-.283-.566 1.148 1.148 0 0 0-.755-.251c-.314 0-.534.063-.692.157a.458.458 0 0 0-.22.409c0 .094 0 .157.032.22a.379.379 0 0 0 .157.157c.094.063.22.094.377.157.158.063.378.095.66.158.221.063.41.094.63.157.22.063.409.157.566.283.157.126.314.283.409.472.094.188.157.44.157.755 0 .251-.063.471-.157.66a1.11 1.11 0 0 1-.41.44 2.01 2.01 0 0 1-.597.252c-.22.063-.471.094-.723.094-.189 0-.346 0-.472-.031l-.377-.095c-.126-.031-.22-.094-.315-.157l-.283-.189v.284a1.527 1.527 0 0 1-.22.094c-.063.031-.157.031-.22.031s-.157 0-.22-.031c-.063 0-.126-.032-.189-.094z"/></g><g><path fill="#55b800" d="M204.176 61.328a1.2 1.2 0 0 1-.346-.44 2 2 0 0 1-.189-.566c-.031-.189-.063-.377-.063-.535 0-.157.032-.346.063-.534.031-.189.094-.346.189-.535a1.2 1.2 0 0 1 .346-.44c.125-.095.346-.158.566-.158.22 0 .409.032.566.158.157.125.251.283.346.44.094.157.157.346.188.535.032.188.063.377.063.534 0 .158-.031.346-.063.535-.031.22-.094.377-.188.566a1.2 1.2 0 0 1-.346.44c-.126.095-.346.158-.566.158-.252 0-.44-.063-.566-.158zm1.635.85c.314-.158.566-.346.755-.598.189-.252.346-.535.44-.85.095-.314.157-.628.157-.943 0-.314-.062-.629-.157-.943a2.955 2.955 0 0 0-.44-.818c-.189-.252-.44-.44-.755-.597-.283-.158-.66-.22-1.07-.22-.408 0-.754.062-1.069.22-.314.157-.566.345-.754.597-.19.22-.346.503-.44.818a3.246 3.246 0 0 0-.127.943c0 .315.032.63.126.944.095.314.252.597.44.849.19.252.44.44.755.598.283.157.66.22 1.07.22a2.69 2.69 0 0 0 1.069-.22z"/></g><g><path fill="#55b800" d="M212.258 61.895c-.094.062-.188.094-.314.157s-.252.126-.409.157c-.157.031-.314.094-.503.126a3.481 3.481 0 0 1-.598.063c-.409 0-.723-.063-1.038-.189a2.17 2.17 0 0 1-.754-.566 2.937 2.937 0 0 1-.472-.818 3.332 3.332 0 0 1-.157-.975c0-.346.031-.692.125-1.006.095-.315.22-.598.41-.85.188-.251.408-.44.691-.597.283-.157.598-.22.975-.22a1.6 1.6 0 0 1 .692.157c.189.095.346.22.472.378v-.346c.126-.063.283-.063.409-.063.157 0 .283.031.44.094v1.981a1.262 1.262 0 0 1-.472.095c-.157 0-.314-.032-.44-.095v-.314c0-.315-.094-.566-.252-.723a1.015 1.015 0 0 0-.66-.252.9.9 0 0 0-.535.157c-.157.095-.251.252-.346.41a1.501 1.501 0 0 0-.188.565c-.032.22-.063.41-.063.63 0 .502.125.911.377 1.194.252.283.566.41.975.41.189 0 .346-.032.472-.064.157-.031.283-.094.409-.157.125-.063.251-.126.377-.22s.252-.189.346-.283l.031 1.164z"/></g><g><path fill="#55b800" d="M214.806 56.422c.157-.126.22-.314.22-.535a.69.69 0 0 0-.22-.534.626.626 0 0 0-.503-.22c-.189 0-.346.094-.503.22-.158.126-.22.314-.22.534 0 .22.062.378.22.535.125.157.314.22.503.22.22 0 .377-.063.503-.22zm-1.51 5.032a1.846 1.846 0 0 0-.063.409c0 .126 0 .283.063.409h2.296c.032-.126.063-.283.063-.409s0-.283-.063-.409h-.534v-4.12h-1.762a1.846 1.846 0 0 0-.063.409c0 .126 0 .283.063.409h.535v3.302z"/></g><g><path fill="#55b800" d="M219.492 60.636a.634.634 0 0 1-.094.346c-.063.126-.158.19-.252.283-.126.095-.22.158-.377.19-.158.03-.283.062-.44.062-.22 0-.41-.063-.535-.189a.62.62 0 0 1-.189-.44c0-.252.063-.44.189-.597.157-.158.377-.252.692-.284l1.006-.094zm.157 1.604h1.573c.031-.125.063-.283.063-.408 0-.126 0-.284-.063-.41h-.535v-2.515a2.16 2.16 0 0 0-.094-.692 1.67 1.67 0 0 0-.252-.472c-.126-.126-.22-.252-.377-.315a2.188 2.188 0 0 0-.409-.157 1.841 1.841 0 0 0-.409-.063c-.126-.031-.251-.031-.346-.031-.251 0-.472.031-.66.063a2.662 2.662 0 0 0-.535.126c-.157.062-.283.125-.409.188s-.22.095-.314.158v.975c.314-.19.597-.315.849-.44.251-.095.535-.158.818-.158.188 0 .346.031.471.063.158.031.252.094.315.189a.981.981 0 0 1 .157.314c.032.126.032.283.032.44-.315.032-.63.095-1.007.095-.377 0-.692.094-1.006.188a1.603 1.603 0 0 0-.755.504c-.22.251-.315.566-.315 1.006 0 .252.032.472.126.66.063.19.189.346.346.472.157.126.315.22.535.283a2.447 2.447 0 0 0 1.541-.063c.22-.125.409-.251.566-.44z"/></g><g><path fill="#55b800" d="M222.354 58.152h-.598c-.062-.157-.062-.315-.062-.44 0-.126.03-.283.062-.41h.598v-1.131l1.226-.63v1.762h.976c.062.126.062.283.062.409 0 .125-.031.251-.062.44h-.976v2.736c0 .22.032.346.126.44a.531.531 0 0 0 .315.095c.126 0 .22 0 .314-.032.095-.031.22-.063.378-.157v.88a3.096 3.096 0 0 1-.503.158c-.19.031-.346.031-.472.031-.503 0-.85-.125-1.07-.377-.22-.252-.314-.629-.314-1.132v-2.642z"/></g><g><path fill="#55b800" d="M226.977 56.422c.157-.126.22-.314.22-.535a.69.69 0 0 0-.22-.534.626.626 0 0 0-.503-.22.67.67 0 0 0-.503.22c-.157.126-.22.314-.22.534 0 .22.063.378.22.535.126.157.314.22.503.22a.626.626 0 0 0 .503-.22zm-1.51 5.032a1.835 1.835 0 0 0-.062.409c0 .126 0 .283.063.409h2.295c.032-.126.063-.283.063-.409s0-.283-.063-.409h-.534v-4.12h-1.761a1.835 1.835 0 0 0-.063.409c0 .126 0 .283.063.409h.534v3.302z"/></g><g><path fill="#55b800" d="M230.468 61.328a1.2 1.2 0 0 1-.346-.44 2 2 0 0 1-.189-.566 3.503 3.503 0 0 1-.062-.535c0-.157.031-.346.062-.534.032-.189.095-.346.19-.535a1.2 1.2 0 0 1 .345-.44c.126-.095.346-.158.566-.158.22 0 .41.032.566.158.158.125.252.283.346.44.095.157.158.346.189.535.032.188.063.377.063.534 0 .158-.032.346-.063.535-.031.22-.094.409-.189.566a1.2 1.2 0 0 1-.346.44c-.125.095-.346.158-.566.158-.22 0-.409-.063-.566-.158zm1.636.85c.314-.158.566-.346.754-.598.19-.252.346-.535.44-.85.095-.314.158-.628.158-.943 0-.314-.063-.629-.157-.943a2.955 2.955 0 0 0-.44-.818c-.19-.252-.44-.44-.755-.597-.284-.158-.66-.22-1.07-.22-.409 0-.755.062-1.069.22-.315.157-.566.345-.755.597-.189.22-.346.503-.44.818a3.244 3.244 0 0 0-.126.943c0 .315.031.63.126.944.094.314.251.597.44.849s.44.44.755.598c.283.157.66.22 1.07.22.44 0 .785-.095 1.069-.22z"/></g><g><path fill="#55b800" d="M234.903 61.454v-3.302h-.566c-.063-.126-.063-.283-.063-.409s.031-.283.063-.409h1.635l.032.566c.125-.157.283-.346.534-.471.252-.158.535-.22.912-.22.535 0 .944.157 1.227.471.283.315.409.755.409 1.321v2.453h.566c.063.126.063.283.063.409s-.032.283-.063.409h-2.296c-.063-.126-.063-.283-.063-.409s.031-.283.063-.409h.503v-2.327c0-.315-.063-.566-.157-.755-.095-.189-.315-.252-.598-.252-.094 0-.22.032-.346.063a.653.653 0 0 0-.314.189c-.095.094-.189.22-.252.409-.063.157-.094.377-.094.66v2.013h.503c.063.126.063.283.063.41 0 .125-.032.282-.063.408h-2.296c-.063-.126-.063-.283-.063-.409s.032-.283.063-.409h.598z"/></g></g><g><g><path fill="#00305e" d="M65.322 27.393l5-12.548 4.938 12.548zM45.634 44.911h12.863l3.177-7.988h17.172l3.176 7.988H95.2L76.33.283H64.503z"/></g><g><path fill="#00305e" d="M87.306.598h13.65L111.05 28.65 121.178.598h13.398l-17.958 44.628H105.2z"/></g><g><path fill="#00305e" d="M137.752.598h12.99l10.567 17.171L171.876.599h12.99V44.91H172.63V19.468l-11.322 17.36h-.252l-11.26-17.297v25.38h-12.045z"/></g><g><path fill="#00305e" d="M207.73 27.393l5-12.548 4.938 12.548zm-19.657 17.518h12.863l3.177-7.988h17.172l3.176 7.988h13.178L218.769.283h-11.857z"/></g></g><g><path fill="#55b800" d="M23.839 24.626l-1.447.346v2.704l-3.02.755V17.266c.032.063 3.083-.755 3.083-.66l-.032 5.063 1.29-.314c4.026-.975 5.881-3.145 5.881-4.78 0-1.322-1.226-2.17-3.24-2.17-.754 0-1.572.125-2.515.345l-5.819 1.384-.503.126c-.818.755-2.359 1.29-4.026 1.258a8.081 8.081 0 0 1-2.799-.598c-.66-.157-1.258-.346-1.54-.471-.598-.19-2.202-.346-2.926-.567-1.037-.314-1.163-2.107.095-2.484 1.163-.315 2.484-.818 2.516-.85.692-.691 1.981-.691 2.296-.534.503-.157 1.383-.472 1.918-.503 1.887-.157 3.208.912 3.46 1.038.346.157.786.251 1.32.346l5.913-1.447a14.33 14.33 0 0 1 3.491-.44c3.743 0 6.165 1.887 6.165 4.78-.032 3.24-3.303 7.297-9.561 8.838m7.202 7.737c0 2.641-3.9 5.975-8.65 7.485v1.478c-1.068.252-1.886.314-2.987.723v-7.674c.63-.063 1.636-.283 2.988-.692v2.737c1.635-.598 2.61-1.227 2.988-1.636 1.635-1.32.22-3.334-2.925-2.516l-5.756 1.384c-1.54.377-2.956.566-4.214.566-3.994 0-5.41-1.855-5.41-3.617 0-1.54 1.07-3.24 2.957-4.623 1.793-1.32 4.277-2.422 7.202-3.114l.503-.125v3.302l-.377.094c-5.158.912-8.051 4.78-3.648 4.466.912-.063 8.586-1.604 8.586-1.604 1.258-.314 2.453-.471 3.49-.471 3.869.031 5.253 2.075 5.253 3.837m-7.485 10.441c2.893 0 3.93 1.761 3.93 3.302 0 1.856-1.477 4.246-5.063 5.63v7.296s-.786 1.825-1.51 1.825c-.723 0-1.509-1.825-1.509-1.825v-2.39h-.031v-7.768c.723-.094 1.73-.346 3.019-.692v.692a9.814 9.814 0 0 0 1.415-1.006c.66-.598.566-1.887-1.038-1.51-.503.126-3.774 1.51-7.453 1.352-3.051-.125-4.152-1.698-4.152-3.302-.22-3.365 3.05-5.315 6.636-6.573v3.302c-3.365 1.101-3.68 3.208-1.73 3.145.912-.031 4.812-1.07 4.812-1.07.944-.25 1.856-.408 2.674-.408m-6.888 10.284c-.566 0-.975-.314-.975-.817 0-.566.598-1.195 1.352-1.416.315-.125.63-.22 1.007-.314v2.327c-.912.189-1.29.22-1.384.22M19.404 2.17c0-1.006 3.02-1.006 3.02 0v7.863c-1.038.188-2.013.44-3.02.754zm15.6 13.618c0-.535-.063-1.038-.19-1.51L41.578.095H30.412l-3.9 9.31a14.63 14.63 0 0 0-2.736.377v-7.61C23.776.88 22.612 0 20.882 0c-1.73 0-2.893.88-2.893 2.17v8.995l-.22.063c-.315-.063-.503-.126-.566-.157l-.063-.032a8.804 8.804 0 0 0-1.793-.849L11.133.094H-.001l5.347 11.983a2.813 2.813 0 0 0-1.573 2.547c0 1.321.787 2.454 1.95 2.831.503.157 1.164.252 1.793.346.126.031.251.031.409.063l2.642 5.881c-.535.315-1.038.63-1.51.975-2.296 1.698-3.617 3.868-3.617 5.944 0 2.422 1.856 5.221 7.045 5.221 1.006 0 2.139-.157 3.334-.377l.566 1.258c-1.887.692-2.956 1.29-4.026 2.107-1.572 1.226-3.113 2.862-2.988 5.66.095 2.265 1.825 4.813 5.913 4.813.44 0 1.667-.126 2.705-.252v.157l-.912.252c-1.321.377-2.642 1.384-2.61 2.862.03 1.227 1.037 1.761 2.327 1.761.094 0 .566-.031 1.195-.126v5.284l.126.252c.44 1.006 1.352 2.704 2.799 2.704 1.446 0 2.359-1.698 2.799-2.704l.126-.252v-6.793c3.71-1.667 5.126-4.183 5.126-6.416 0-2.485-1.667-4.97-5.44-4.938 5.031-1.918 9.214-5.787 9.214-8.806 0-2.107-1.29-4.214-4.057-5.063l1.887-3.963c2.893-2.139 4.435-5.032 4.435-7.517"/></g></g><g><g><path fill="#00305e" d="M236.947 1.887c.252 0 .472.063.472.377 0 .315-.22.378-.472.378h-.566v-.755h.566zm1.226 2.485c-.125-.158-.786-1.258-.817-1.29.409-.126.597-.44.597-.818 0-.629-.44-.912-1.038-.912h-1.1V4.34h.566V3.114h.22c.189 0 .252.062.346.22l.566 1.006zm.85-1.541c0 1.163-.944 2.138-2.107 2.138a2.14 2.14 0 0 1-2.14-2.138c0-1.164.976-2.108 2.14-2.108 1.163 0 2.107.944 2.107 2.108zm.723.031a2.819 2.819 0 0 0-2.83-2.83 2.819 2.819 0 0 0-2.831 2.83 2.819 2.819 0 0 0 2.83 2.83c1.542 0 2.831-1.289 2.831-2.83z"/></g></g></g></g></svg>