<svg id="Layer_1" data-name="Layer 1" xmlns="http://www.w3.org/2000/svg" xmlns:xlink="http://www.w3.org/1999/xlink" viewBox="0 0 66.07 79.28"><defs><style>.cls-1{fill:none;}.cls-2{fill:#fff;}.cls-3{clip-path:url(#clip-path);}.cls-4{fill:#006db6;}</style><clipPath id="clip-path" transform="translate(0 0)"><rect class="cls-1" width="66.07" height="79.28"/></clipPath></defs><title>FDA_Logo_Icon_White</title><rect class="cls-2" width="66.07" height="79.28"/><g class="cls-3"><path class="cls-4" d="M29.51,15.8v0H6.61v21.3h4.45V28.29h6V24.47h-6V19.59h18a6.46,6.46,0,0,1,2.31.45,4.56,4.56,0,0,1,1.77,1.34,5.52,5.52,0,0,1,1,2.13,11.72,11.72,0,0,1,.31,2.82,10.5,10.5,0,0,1-.36,2.85A6,6,0,0,1,33,31.38a4.85,4.85,0,0,1-2,1.42,7.91,7.91,0,0,1-3,.49H25.19V24.51H20.74V37.08H28a14.67,14.67,0,0,0,4.65-.69A8.83,8.83,0,0,0,38.3,31a13,13,0,0,0,.76-4.65q0-5.22-2.73-7.88a10.1,10.1,0,0,0-6.83-2.63" transform="translate(0 0)"/><polygon class="cls-4" points="47.23 15.77 51.46 15.77 59.46 37.08 54.86 37.08 49.46 20.84 46.87 28.48 49.78 28.48 50.84 32.16 45.7 32.16 44 37.08 39.23 37.08 47.23 15.77"/></g></svg>