<svg width="275" height="64" viewBox="0 0 275 64" xmlns="http://www.w3.org/2000/svg"><title>Group 4</title><g fill="none" fill-rule="evenodd"><path d="M189.49 16.133v47.034h5.599V45.645h.132a9.02 9.02 0 0 0 2.272 2.536c.9.68 1.856 1.219 2.866 1.614s2.031.68 3.063.856c1.032.176 1.965.264 2.8.264 2.59 0 4.863-.461 6.818-1.384 1.954-.922 3.579-2.184 4.874-3.787 1.296-1.603 2.262-3.48 2.899-5.633.637-2.152.955-4.435.955-6.85 0-2.416-.33-4.7-.988-6.852-.659-2.152-1.636-4.05-2.931-5.698-1.296-1.647-2.92-2.953-4.875-3.92-1.954-.965-4.249-1.449-6.884-1.449-2.371 0-4.545.429-6.522 1.285-1.976.856-3.425 2.229-4.347 4.117h-.132v-4.611h-5.6zm26.35 16.732c0 1.669-.176 3.294-.528 4.875-.35 1.58-.922 2.986-1.712 4.216a9.002 9.002 0 0 1-3.13 2.964c-1.295.747-2.909 1.12-4.841 1.12-1.932 0-3.58-.362-4.94-1.087-1.362-.725-2.471-1.68-3.327-2.865-.857-1.186-1.483-2.559-1.878-4.118a19.626 19.626 0 0 1-.593-4.841c0-1.581.187-3.14.56-4.677.374-1.538.977-2.91 1.812-4.118a9.638 9.638 0 0 1 3.228-2.931c1.317-.747 2.92-1.12 4.809-1.12 1.8 0 3.37.351 4.71 1.054a9.361 9.361 0 0 1 3.293 2.833c.857 1.185 1.493 2.536 1.91 4.051a17.38 17.38 0 0 1 .626 4.644zm8.76-16.732V50.19h5.6V35.04c0-2.196.22-4.14.659-5.83.44-1.69 1.142-3.129 2.108-4.315.966-1.185 2.24-2.086 3.82-2.7 1.582-.615 3.492-.923 5.732-.923v-5.929c-3.03-.087-5.534.527-7.51 1.845-1.976 1.317-3.645 3.36-5.006 6.126h-.132v-7.18h-5.27zm16.417 17.061c0 2.504.351 4.831 1.054 6.983.703 2.152 1.757 4.03 3.162 5.632 1.405 1.603 3.14 2.855 5.204 3.755 2.064.9 4.436 1.35 7.115 1.35 2.722 0 5.105-.45 7.147-1.35 2.042-.9 3.766-2.152 5.171-3.755 1.405-1.602 2.46-3.48 3.162-5.632.703-2.152 1.054-4.48 1.054-6.983 0-2.503-.351-4.841-1.054-7.015-.703-2.174-1.757-4.062-3.162-5.665-1.405-1.603-3.129-2.866-5.171-3.788-2.042-.922-4.425-1.384-7.147-1.384-2.68 0-5.05.462-7.115 1.384-2.064.922-3.799 2.185-5.204 3.788-1.405 1.603-2.46 3.491-3.162 5.665-.703 2.174-1.054 4.512-1.054 7.015zm5.929 0c0-2.064.274-3.897.823-5.5.55-1.603 1.307-2.953 2.273-4.051a9.678 9.678 0 0 1 3.392-2.504 10.097 10.097 0 0 1 4.118-.856c1.449 0 2.821.286 4.117.856a9.678 9.678 0 0 1 3.392 2.504c.966 1.098 1.724 2.448 2.273 4.051.549 1.603.823 3.436.823 5.5 0 2.065-.274 3.898-.823 5.501-.549 1.603-1.307 2.942-2.273 4.018a9.862 9.862 0 0 1-3.392 2.47 10.082 10.082 0 0 1-4.117.857c-1.45 0-2.822-.285-4.118-.856a9.862 9.862 0 0 1-3.392-2.47c-.966-1.077-1.724-2.416-2.273-4.019-.549-1.603-.823-3.436-.823-5.5z" fill="#B6B8B9"/><g fill="#FF6300"><path d="M166.995 2.09h-9.599l-5.941 14.801C148.867 9.673 141.115.82 128.02.82c-7.626 0-13.756 3.002-18.045 7.482 1.647 2.867 2.457 6.175 2.456 9.502-.036 5.341-2.097 10.8-5.684 13.929l-.006.002-.004.005a18.54 18.54 0 0 1-2.346 1.736c3.213 9.422 11.994 16.81 23.757 16.81 3.897 0 7.584-.87 10.88-2.432l-.762 1.902h13.07l2.517-6.897h16.554l2.316 6.897h13.205L166.995 2.09zm-27.507 29.458c-.774 1.676-3.865 8.05-11.467 8.05-7.922 0-12.817-6.959-12.817-14.169 0-6.769 4.573-13.918 12.753-13.918 6.573 0 10.178 4.764 11.53 8.31h10.793l-4.706 11.727h-6.086zm17.713 1.649l4.899-16.29h.192l4.901 16.29h-9.992zM58.438 11c3.731 0 4.115 3.029 4.379 4.633h9.964V7.749c-.312-.5-.655-1.006-1.074-1.517C68.61 2.562 63.526.82 58.821.82c-7.987 0-16.68 5.09-16.68 14.04 0 8.955 8.306 12.309 11.658 13.66 7.342 3.091 9.336 3.865 9.336 7.023 0 2.186-1.737 4.571-4.634 4.571-1.544 0-4.955-.966-4.955-6.503H41.428v.08l-12.7-31.967h-9.602L0 49.39h13.076l2.51-6.888H32.14l2.32 6.888h13.206l-1.085-2.73c2.641 2.15 6.492 3.626 12.048 3.626 7.324 0 11.733-2.584 14.152-6.105V27.985c-1.694-2.114-4.421-4.057-8.68-5.968-8.564-3.869-9.85-4.455-9.85-7.284 0-2.253 2.063-3.733 4.187-3.733zm-39.5 21.836l4.894-16.3h.195l4.896 16.3h-9.986zM178.79 2.162c1.618 0 2.907 1.316 2.907 2.959 0 1.67-1.289 2.969-2.92 2.969-1.617 0-2.933-1.3-2.933-2.97a2.942 2.942 0 0 1 2.933-2.958h.012zm-.013.459c-1.303 0-2.368 1.118-2.368 2.5 0 1.407 1.065 2.51 2.38 2.51 1.316.014 2.368-1.103 2.368-2.497 0-1.395-1.052-2.513-2.368-2.513h-.012zm-.551 4.221h-.527V3.54c.274-.038.538-.076.934-.076.5 0 .827.104 1.025.248.197.145.302.369.302.685 0 .434-.289.696-.644.802v.025c.289.053.488.316.553.804.078.511.155.708.21.814h-.554c-.079-.106-.157-.409-.222-.841-.079-.421-.29-.579-.71-.579h-.367v1.42zm0-1.827h.38c.433 0 .801-.16.801-.566 0-.289-.207-.578-.8-.578-.174 0-.29.012-.381.026v1.118z"/><path d="M74.614 1.656h15.634c8.844 0 12.142 1.354 14.731 3.488 3.743 3.097 5.622 7.812 5.622 12.659 0 4.843-2.01 9.948-5.045 12.536-3.295 2.776-6.524 4.13-13.956 4.13h-5.296v14.995h-11.69V1.656zm11.69 22.09h4.977c2.322 0 7.623 0 7.623-5.748 0-5.62-5.427-5.62-8.079-5.62h-4.521v11.368z"/></g></g></svg>